<svg xmlns="http://www.w3.org/2000/svg" width="512" height="512" viewBox="0 0 512 512" version="1.1">
	<path d="M 39.479 60.898 C 32.213 62.715, 27.917 67.962, 27.818 75.138 C 27.756 79.572, 27.231 78.481, 47.243 115.500 C 54.676 129.250, 81.899 180.100, 107.739 228.500 C 133.579 276.900, 158.260 323.091, 162.587 331.148 L 170.454 345.795 175.084 337.148 C 191.608 306.287, 239 216.133, 239 215.560 C 239 215.178, 230.722 199.033, 220.605 179.682 C 210.488 160.332, 194.705 130.122, 185.531 112.550 C 176.357 94.977, 167.514 78.911, 165.880 76.848 C 161.915 71.842, 152 65.459, 144 62.762 C 137.713 60.643, 135.941 60.564, 90 60.357 C 63.875 60.239, 41.141 60.483, 39.479 60.898 M 338 61.576 C 329.675 63.809, 322.580 67.617, 316.654 73.034 C 310.550 78.612, 309.336 80.782, 275.784 146.078 L 254.419 187.655 284.460 167.469 C 337.085 132.106, 338.722 131.150, 395 102.969 C 423.875 88.510, 452.607 73.990, 458.849 70.704 L 470.198 64.728 466.860 62.614 C 463.568 60.529, 462.710 60.497, 403.511 60.301 C 353.311 60.134, 342.601 60.342, 338 61.576 M 330.500 333.602 C 326.728 334.224, 284.503 336.964, 276.250 337.123 C 268.466 337.273, 267.444 337.665, 267.906 340.324 C 267.985 340.778, 267.627 340.887, 267.110 340.568 C 266.594 340.249, 265.902 340.553, 265.574 341.244 C 265.246 341.935, 265.183 341.422, 265.433 340.105 L 265.889 337.710 249.713 338.421 C 240.816 338.811, 233.304 339.439, 233.018 339.816 C 232.733 340.192, 227.775 340.633, 222 340.795 C 216.225 340.957, 211.366 341.472, 211.202 341.939 C 211.038 342.406, 210.086 342.574, 209.087 342.312 C 207.434 341.880, 182.084 344.583, 181.403 345.264 C 181.243 345.424, 185.668 349.142, 191.236 353.527 C 196.803 357.912, 205.216 364.895, 209.929 369.044 C 214.643 373.193, 228.625 385.322, 241 395.997 C 253.375 406.671, 268.074 419.364, 273.664 424.203 C 279.254 429.041, 284.305 433, 284.888 433 C 286.205 433, 289.152 427.485, 288.293 426.627 C 287.949 426.282, 288.218 426, 288.892 426 C 289.566 426, 289.840 425.550, 289.500 425 C 289.160 424.450, 289.385 424, 290 424 C 290.615 424, 290.840 423.550, 290.500 423 C 290.160 422.450, 290.306 422, 290.824 422 C 291.343 422, 292.049 421.212, 292.393 420.250 C 292.738 419.288, 294.115 416.715, 295.453 414.534 C 297.394 411.370, 297.645 410.270, 296.693 409.097 C 295.715 407.891, 295.806 407.740, 297.199 408.262 C 298.386 408.706, 299.123 408.235, 299.647 406.699 C 300.059 405.490, 300.307 404.163, 300.198 403.750 C 300.089 403.337, 300.450 403, 301 403 C 301.550 403, 302 402.518, 302 401.929 C 302 401.339, 302.656 400.201, 303.458 399.400 C 304.259 398.598, 304.633 397.206, 304.288 396.307 C 303.868 395.213, 304.048 394.911, 304.830 395.395 C 305.865 396.035, 306.191 395.425, 305.915 393.362 C 305.868 393.011, 306.255 392.448, 306.775 392.112 C 307.295 391.775, 308.452 390.073, 309.346 388.328 C 310.582 385.915, 310.675 385.037, 309.735 384.657 C 308.972 384.349, 309.128 384.128, 310.142 384.079 C 311.044 384.036, 312.068 382.864, 312.417 381.475 C 312.766 380.086, 313.974 378.026, 315.103 376.897 C 316.231 375.769, 316.902 374.188, 316.594 373.385 C 316.286 372.582, 316.699 371.669, 317.511 371.357 C 318.324 371.046, 318.740 370.388, 318.435 369.895 C 318.131 369.403, 318.359 369, 318.941 369 C 319.523 369, 320 368.325, 320 367.500 C 320 366.675, 320.402 366, 320.893 366 C 321.384 366, 322.054 365.302, 322.382 364.448 C 322.774 363.427, 322.554 363.110, 321.739 363.522 C 321.057 363.867, 321.400 363.384, 322.500 362.449 C 324.482 360.766, 324.479 360.755, 322.249 361.282 C 321.010 361.574, 320.249 361.405, 320.558 360.907 C 320.866 360.408, 321.722 360, 322.461 360 C 323.200 360, 324.275 358.650, 324.850 357 C 325.425 355.350, 326.369 354, 326.948 354 C 327.527 354, 327.914 353.663, 327.810 353.250 C 327.705 352.837, 327.960 351.063, 328.376 349.307 C 328.938 346.938, 329.568 346.248, 330.817 346.633 C 332.265 347.079, 332.252 346.992, 330.729 346.014 C 329.755 345.389, 329.223 344.447, 329.548 343.922 C 329.873 343.397, 330.557 343.226, 331.069 343.543 C 331.581 343.859, 332 343.615, 332 343 C 332 342.385, 332.450 342.160, 333 342.500 C 333.550 342.840, 334 342.668, 334 342.118 C 334 341.568, 333.610 340.877, 333.134 340.583 C 332.658 340.289, 332.498 338.845, 332.779 337.375 C 333.177 335.293, 332.982 334.878, 331.895 335.498 C 330.926 336.051, 330.805 335.965, 331.500 335.218 C 332.050 334.627, 334.075 333.958, 336 333.731 L 339.500 333.320 336 333.296 C 334.075 333.283, 331.600 333.421, 330.500 333.602" stroke="none" fill="#c01c28" fill-rule="evenodd"/>
</svg>